Results
version=1
nRows=14
nColumns=24
inDegrees=yes
endheader
time	pelvis_tilt	pelvis_list	pelvis_rotation	pelvis_tx	pelvis_ty	pelvis_tz	hip_flexion_r	hip_adduction_r	hip_rotation_r	knee_angle_r	ankle_angle_r	subtalar_angle_r	mtp_angle_r	hip_flexion_l	hip_adduction_l	hip_rotation_l	knee_angle_l	ankle_angle_l	subtalar_angle_l	mtp_angle_l	lumbar_extension	lumbar_bending	lumbar_rotation
      1.10833333	     -4.83019647	     -4.99231527	     -4.40121125	     -0.21751158	      1.00139468	      0.32936268	     -6.36141012	      9.88027425	      2.19814256	    -11.44190823	     15.26398755	      2.45130072	     10.64620860	     25.47515453	     -4.80943771	    -11.93201949	      7.60174161	      2.13934570	      5.58386189	      2.41798460	      2.75279158	      4.42322459	     10.83695004
      1.11250000	     -4.83521429	     -4.85055159	     -4.49297593	     -0.21195526	      1.00064577	      0.32919471	     -6.47811009	      9.69397853	      2.29913245	    -11.87737226	     15.45895150	      2.40784333	     10.63647425	     25.49982312	     -4.64656928	    -11.67561180	      7.32664087	      2.21078101	      5.51740758	      2.49100896	      2.77225734	      4.25880728	     10.88984040
      1.11666667	     -4.85198282	     -4.70583974	     -4.58854020	     -0.20636572	      0.99991108	      0.32903124	     -6.55835658	      9.50487030	      2.38166612	    -12.36665424	     15.66624761	      2.46404760	      9.90156244	     25.51968944	     -4.48687577	    -11.31137519	      7.03192120	      2.06921890	      5.15374577	      5.96902855	      2.82075941	      4.08800471	     10.98278348
      1.12083333	     -4.82134592	     -4.54042198	     -4.65843967	     -0.20076131	      0.99927163	      0.32884493	     -6.68669006	      9.30128597	      2.50574302	    -12.85108146	     15.82034006	      2.34296805	      9.90530446	     25.53225098	     -4.30082957	    -11.07856031	      6.59250254	      2.09485576	      5.07361536	      5.98523090	      2.79733964	      3.88588241	     11.02433231
      1.12500000	     -4.78808317	     -4.35083984	     -4.72703843	     -0.19510605	      0.99866601	      0.32866735	     -6.80305344	      9.07556943	      2.63736769	    -13.36615055	     15.95123424	      2.20637200	      9.90809472	     25.54278748	     -4.09320437	    -10.83681165	      6.09975012	      2.07309021	      4.90319854	      6.01205756	      2.78377029	      3.65412948	     11.07049353
      1.12916667	     -4.75906205	     -4.17241080	     -4.79581042	     -0.18943509	      0.99807987	      0.32851297	     -6.90338561	      8.86979307	      2.80470670	    -13.90724896	     16.03812209	      2.05237395	      9.90717963	     25.51989409	     -3.89852776	    -10.36527359	      5.64682574	      1.81440955	      4.24739365	      6.16947895	      2.79136029	      3.41730080	     11.20858896
      1.13333333	     -4.70741721	     -3.97598683	     -4.84276297	     -0.18372548	      0.99755563	      0.32832999	     -7.01972539	      8.65165513	      2.98025235	    -14.45950286	     16.07796314	      1.80387434	      9.90707636	     25.50235869	     -3.67901803	     -9.98644370	      5.10130409	      1.61535803	      3.76071259	      6.38433498	      2.76567437	      3.15990770	     11.22009404
      1.13750000	     -4.64393104	     -3.76978205	     -4.88280391	     -0.17798343	      0.99708053	      0.32813029	     -7.13244551	      8.42567648	      3.15506470	    -15.04421802	     16.09200950	      1.54383697	      9.91220748	     25.47701662	     -3.44632953	     -9.61121917	      4.51995541	      1.36517556	      3.23061202	      6.62954106	      2.73327908	      2.88964341	     11.25469008
      1.14166667	     -4.59540283	     -3.55635442	     -4.91336050	     -0.17221044	      0.99661821	      0.32791893	     -7.21385868	      8.20041412	      3.34051375	    -15.65828320	     16.06677395	      1.24933650	      9.92478860	     25.47329180	     -3.20413359	     -9.21579668	      3.90478804	      1.07366924	      2.64078691	      6.90176202	      2.72209368	      2.61153743	     11.27540882
      1.14583333	     -4.51556246	     -3.33517328	     -4.93545402	     -0.16641483	      0.99622835	      0.32769505	     -7.31283543	      7.96882839	      3.52263031	    -16.30224242	     16.00765289	      0.94008250	      9.94814149	     25.43564180	     -2.94837853	     -8.81126292	      3.27581735	      0.72144763	      1.98735323	      7.18465960	      2.67366111	      2.31923443	     11.28975251
      1.15000000	     -4.44491547	     -3.10735038	     -4.95075999	     -0.16058064	      0.99586382	      0.32745558	     -7.38383433	      7.73577802	      3.70114444	    -16.98352289	     15.91331995	      0.60654420	      9.98205226	     25.40941496	     -2.68280415	     -8.40531039	      2.62999814	      0.31801308	      1.28518855	      7.45318984	      2.65089772	      2.01612910	     11.29030568
      1.15416667	     -4.36336901	     -2.87677741	     -4.94169248	     -0.15472788	      0.99553917	      0.32717752	     -7.45102846	      7.50487615	      3.85661060	    -17.69038623	     15.77901842	      0.27265699	     10.04697388	     25.37421150	     -2.40206233	     -7.93588546	      1.97142820	     -0.08463536	      0.51142971	      7.80088670	      2.61045841	      1.69751081	     11.28346629
      1.15833333	     -4.29500214	     -2.63550675	     -4.94909023	     -0.14884936	      0.99525327	      0.32689930	     -7.47799323	      7.26376968	      4.02534971	    -18.44706824	     15.60283563	     -0.07820393	     10.11581286	     25.35249371	     -2.11684335	     -7.54634973	      1.30644463	     -0.59621339	     -0.24901226	      8.06034315	      2.59279058	      1.38816138	     11.26967881
      1.16250000	     -4.21886382	     -2.38949573	     -4.93606095	     -0.14294711	      0.99501088	      0.32658431	     -7.49482329	      7.02075923	      4.16675557	    -19.23652404	     15.38556445	     -0.41528650	     10.20160053	     25.32413460	     -1.81623308	     -7.12352975	      0.63369028	     -1.10810017	     -1.03895466	      8.29157067	      2.56668087	      1.06191951	     11.24250599
